<?xml version="1.0" encoding="utf-8"?>
<!-- Generator: Adobe Illustrator 26.0.0, SVG Export Plug-In . SVG Version: 6.00 Build 0)  -->
<svg version="1.1" id="Capa_1" xmlns="http://www.w3.org/2000/svg" xmlns:xlink="http://www.w3.org/1999/xlink" x="0px" y="0px"
	 viewBox="0 0 800 800" style="enable-background:new 0 0 800 800;" xml:space="preserve">
<style type="text/css">
	.st0{fill:#71C168;}
</style>
<g>
	<path class="st0" d="M740.7,271.6c-6.6,2.1-10.1,9.2-8,15.8c11.8,36.2,17.8,74.2,17.8,112.7c0,96.9-37.7,188-106.2,256.5
		S484.7,762.8,387.8,762.8s-188-37.7-256.5-106.2S25,496.9,25,400s37.7-188,106.2-256.5S290.9,37.2,387.8,37.2
		c51.4,0,101,10.5,147.6,31.3c45,20.1,84.8,48.6,118.5,84.9c4.7,5.1,12.6,5.4,17.7,0.7c5.1-4.7,5.4-12.6,0.7-17.7
		c-35.9-38.7-78.5-69.3-126.6-90.7c-49.8-22.2-102.8-33.4-157.8-33.4c-103.6,0-201,40.3-274.2,113.6C40.3,199.1,0,296.4,0,400
		s40.3,200.9,113.6,274.2c73.2,73.2,170.6,113.6,274.2,113.6s201-40.3,274.2-113.6C735.2,601,775.6,503.6,775.6,400
		c0-41.1-6.4-81.7-19.1-120.4C754.3,273,747.3,269.4,740.7,271.6z"/>
	<path class="st0" d="M789,130.1c-7.1-7.1-16.5-11-26.5-11s-19.5,3.9-26.5,11l-11.2,11.2c-4.9,4.9-4.9,12.8,0,17.7s12.8,4.9,17.7,0
		l11.2-11.2c2.4-2.4,5.5-3.7,8.8-3.7s6.5,1.3,8.9,3.7s3.7,5.5,3.7,8.8s-1.3,6.5-3.7,8.8l-431,431c-2.4,2.4-5.5,3.7-8.8,3.7
		s-6.5-1.3-8.9-3.7L154.3,428.1c-2.4-2.4-3.7-5.5-3.7-8.8s1.3-6.5,3.7-8.9s5.5-3.7,8.8-3.7s6.5,1.3,8.9,3.7L322.6,561
		c2.3,2.3,5.5,3.7,8.8,3.7s6.5-1.3,8.8-3.7l367-367c4.9-4.9,4.9-12.8,0-17.7s-12.8-4.9-17.7,0l-358,358.3L189.7,392.8
		c-7.1-7.1-16.5-11-26.5-11s-19.4,3.9-26.5,11s-11,16.5-11,26.5s3.9,19.4,11,26.5L305,614.1c7.1,7.1,16.5,11,26.5,11
		s19.5-3.9,26.5-11l431-431c7.1-7.1,11-16.5,11-26.5C800,146.6,796.1,137.2,789,130.1z"/>
</g>
</svg>
